                                                                        S      1
,,28HCrazyfire HZ-100P Housing v4,28HCrazyfire HZ-100P Housing v4,7HunknG      1
own,7Hunknown,32,38,7,99,15,,1.,2,2HMM,1,0.08,15H20170428.142929,0.01,  G      2
10000.,7Hunknown,7Hunknown,11,0,;                                       G      3
     186       1                                                00000000D      1
     186            -239       1       0                               0D      2
     514       2                                                00010000D      3
     514                       2       1                               0D      4
     510       4                                                00010000D      5
     510            -239       1       1                               0D      6
     510       5                                                00010000D      7
     510            -239       1       1                               0D      8
     510       6                                                00010000D      9
     510            -239       1       1                               0D     10
     510       7                                                00010000D     11
     510            -239       1       1                               0D     12
     510       8                                                00010000D     13
     510            -239       1       1                               0D     14
     510       9                                                00010000D     15
     510            -239       1       1                               0D     16
     510      10                                                00010000D     17
     510            -239       1       1                               0D     18
     510      11                                                00010000D     19
     510            -239       1       1                               0D     20
     510      12                                                00010000D     21
     510            -239       1       1                               0D     22
     510      13                                                00010000D     23
     510            -239       1       1                               0D     24
     510      14                                                00010000D     25
     510            -239       1       1                               0D     26
     510      15                                                00010000D     27
     510            -239       1       1                               0D     28
     510      16                                                00010000D     29
     510            -239       1       1                               0D     30
     510      17                                                00010000D     31
     510            -239       1       1                               0D     32
     510      18                                                00010000D     33
     510            -239       1       1                               0D     34
     510      19                                                00010000D     35
     510            -239       1       1                               0D     36
     510      20                                                00010000D     37
     510            -239       1       1                               0D     38
     510      21                                                00010000D     39
     510            -239       1       1                               0D     40
     510      22                                                00010000D     41
     510            -239       1       1                               0D     42
     510      23                                                00010000D     43
     510            -239       1       1                               0D     44
     510      24                                                00010000D     45
     510            -239       1       1                               0D     46
     508      25                                                00010000D     47
     508                       1       1                               0D     48
     508      26                                                00010000D     49
     508                       1       1                               0D     50
     508      27                                                00010000D     51
     508                       1       1                               0D     52
     508      28                                                00010000D     53
     508                       1       1                               0D     54
     508      29                                                00010000D     55
     508                       1       1                               0D     56
     508      30                                                00010000D     57
     508                       1       1                               0D     58
     508      31                                                00010000D     59
     508                       1       1                               0D     60
     508      32                                                00010000D     61
     508                       1       1                               0D     62
     508      33                                                00010000D     63
     508                       1       1                               0D     64
     508      34                                                00010000D     65
     508                       1       1                               0D     66
     508      35                                                00010000D     67
     508                       1       1                               0D     68
     508      36                                                00010000D     69
     508                       1       1                               0D     70
     508      37                                                00010000D     71
     508                       1       1                               0D     72
     508      38                                                00010000D     73
     508                       1       1                               0D     74
     508      39                                                00010000D     75
     508                       1       1                               0D     76
     508      40                                                00010000D     77
     508                       1       1                               0D     78
     508      41                                                00010000D     79
     508                       1       1                               0D     80
     508      42                                                00010000D     81
     508                       1       1                               0D     82
     508      43                                                00010000D     83
     508                       1       1                               0D     84
     508      44                                                00010000D     85
     508                       1       1                               0D     86
     508      45                                                00010000D     87
     508                       1       1                               0D     88
     508      46                                                00010000D     89
     508                       1       1                               0D     90
     508      47                                                00010000D     91
     508                       1       1                               0D     92
     508      48                                                00010000D     93
     508                       1       1                               0D     94
     508      49                                                00010000D     95
     508                       1       1                               0D     96
     508      50                                                00010000D     97
     508                       1       1                               0D     98
     126      51                                                00010000D     99
     126       0              14       0                               0D    100
     126      65                                                00010000D    101
     126       0               4       0                               0D    102
     126      69                                                00010000D    103
     126       0              15       0                               0D    104
     126      84                                                00010000D    105
     126       0              14       0                               0D    106
     126      98                                                00010000D    107
     126       0               4       0                               0D    108
     126     102                                                00010000D    109
     126       0              15       0                               0D    110
     126     117                                                00010000D    111
     126       0               5       0                               0D    112
     126     122                                                00010000D    113
     126       0               4       0                               0D    114
     126     126                                                00010000D    115
     126       0               5       0                               0D    116
     126     131                                                00010000D    117
     126       0               5       0                               0D    118
     126     136                                                00010000D    119
     126       0               4       0                               0D    120
     126     140                                                00010000D    121
     126       0               4       0                               0D    122
     126     144                                                00010000D    123
     126       0               4       0                               0D    124
     126     148                                                00010000D    125
     126       0               5       0                               0D    126
     126     153                                                00010000D    127
     126       0               5       0                               0D    128
     126     158                                                00010000D    129
     126       0               5       0                               0D    130
     126     163                                                00010000D    131
     126       0               5       0                               0D    132
     126     168                                                00010000D    133
     126       0               4       0                               0D    134
     126     172                                                00010000D    135
     126       0               4       0                               0D    136
     126     176                                                00010000D    137
     126       0               4       0                               0D    138
     126     180                                                00010000D    139
     126       0               5       0                               0D    140
     126     185                                                00010000D    141
     126       0               5       0                               0D    142
     126     190                                                00010000D    143
     126       0               5       0                               0D    144
     126     195                                                00010000D    145
     126       0               5       0                               0D    146
     126     200                                                00010000D    147
     126       0               4       0                               0D    148
     126     204                                                00010000D    149
     126       0               4       0                               0D    150
     126     208                                                00010000D    151
     126       0               4       0                               0D    152
     126     212                                                00010000D    153
     126       0               2       0                               0D    154
     126     214                                                00010000D    155
     126       0               3       0                               0D    156
     126     217                                                00010000D    157
     126       0               3       0                               0D    158
     126     220                                                00010000D    159
     126       0               3       0                               0D    160
     126     223                                                00010000D    161
     126       0               3       0                               0D    162
     126     226                                                00010000D    163
     126       0               4       0                               0D    164
     126     230                                                00010000D    165
     126       0               4       0                               0D    166
     126     234                                                00010000D    167
     126       0               2       0                               0D    168
     126     236                                                00010000D    169
     126       0               4       0                               0D    170
     126     240                                                00010000D    171
     126       0               3       0                               0D    172
     126     243                                                00010000D    173
     126       0               4       0                               0D    174
     126     247                                                00010000D    175
     126       0               4       0                               0D    176
     126     251                                                00010000D    177
     126       0               4       0                               0D    178
     126     255                                                00010000D    179
     126       0               3       0                               0D    180
     126     258                                                00010000D    181
     126       0               2       0                               0D    182
     126     260                                                00010000D    183
     126       0               3       0                               0D    184
     126     263                                                00010000D    185
     126       0               2       0                               0D    186
     126     265                                                00010000D    187
     126       0               2       0                               0D    188
     126     267                                                00010000D    189
     126       0               2       0                               0D    190
     128     269                                                00010000D    191
     128       0    -239      25       0                               0D    192
     128     294                                                00010000D    193
     128       0    -239      26       0                               0D    194
     128     320                                                00010000D    195
     128       0    -239       9       0                               0D    196
     128     329                                                00010000D    197
     128       0    -239       9       0                               0D    198
     128     338                                                00010000D    199
     128       0    -239       9       0                               0D    200
     128     347                                                00010000D    201
     128       0    -239       9       0                               0D    202
     128     356                                                00010000D    203
     128       0    -239       9       0                               0D    204
     128     365                                                00010000D    205
     128       0    -239       9       0                               0D    206
     128     374                                                00010000D    207
     128       0    -239       9       0                               0D    208
     128     383                                                00010000D    209
     128       0    -239       9       0                               0D    210
     128     392                                                00010000D    211
     128       0    -239       7       0                               0D    212
     128     399                                                00010000D    213
     128       0    -239       6       0                               0D    214
     128     405                                                00010000D    215
     128       0    -239       6       0                               0D    216
     128     411                                                00010000D    217
     128       0    -239       6       0                               0D    218
     128     417                                                00010000D    219
     128       0    -239       6       0                               0D    220
     128     423                                                00010000D    221
     128       0    -239       6       0                               0D    222
     128     429                                                00010000D    223
     128       0    -239       6       0                               0D    224
     128     435                                                00010000D    225
     128       0    -239       6       0                               0D    226
     128     441                                                00010000D    227
     128       0    -239       6       0                               0D    228
     128     447                                                00010000D    229
     128       0    -239       5       0                               0D    230
     128     452                                                00010000D    231
     128       0    -239       4       0                               0D    232
     502     456                                                00010000D    233
     502                      17       1                               0D    234
     504     473                                                00010001D    235
     504                      13       1                               0D    236
     406     486                                                00000000D    237
     406                       1      15                               0D    238
     314     487                                                00000200D    239
     314                       2       0                               0D    240
186,3,1,0,0,1,237;                                                     1P      1
514,21,5,1,7,1,9,1,11,1,13,1,15,1,17,1,19,1,21,1,23,1,25,1,27,1,       3P      2
29,1,31,1,33,1,35,1,37,1,39,1,41,1,43,1,45,1;                          3P      3
510,191,1,1,47;                                                        5P      4
510,193,1,1,49;                                                        7P      5
510,195,2,1,51,53;                                                     9P      6
510,197,1,1,55;                                                       11P      7
510,199,2,1,57,59;                                                    13P      8
510,201,1,1,61;                                                       15P      9
510,203,1,1,63;                                                       17P     10
510,205,1,1,65;                                                       19P     11
510,207,1,1,67;                                                       21P     12
510,209,1,1,69;                                                       23P     13
510,211,1,1,71;                                                       25P     14
510,213,2,1,73,75;                                                    27P     15
510,215,1,1,77;                                                       29P     16
510,217,2,1,79,81;                                                    31P     17
510,219,1,1,83;                                                       33P     18
510,221,1,1,85;                                                       35P     19
510,223,1,1,87;                                                       37P     20
510,225,1,1,89;                                                       39P     21
510,227,1,1,91;                                                       41P     22
510,229,1,1,93;                                                       43P     23
510,231,2,1,95,97;                                                    45P     24
508,4,0,235,1,0,0,0,235,2,1,0,0,235,3,0,0,0,235,2,0,0;                47P     25
508,4,0,235,4,0,0,0,235,5,1,0,0,235,6,0,0,0,235,5,0,0;                49P     26
508,4,0,235,7,0,0,0,235,8,0,0,0,235,9,0,0,0,235,10,0,0;               51P     27
508,1,0,235,3,1,0;                                                    53P     28
508,4,0,235,11,0,0,0,235,10,1,0,0,235,12,0,0,0,235,13,0,0;            55P     29
508,4,0,235,14,0,0,0,235,15,1,0,0,235,16,0,0,0,235,17,0,0;            57P     30
508,1,0,235,6,1,0;                                                    59P     31
508,4,0,235,18,0,0,0,235,19,0,0,0,235,20,0,0,0,235,15,0,0;            61P     32
508,4,0,235,14,1,0,0,235,21,0,0,0,235,7,1,0,0,235,22,0,0;             63P     33
508,4,0,235,9,1,0,0,235,23,0,0,0,235,16,1,0,0,235,24,1,0;             65P     34
508,4,0,235,18,1,0,0,235,22,1,0,0,235,11,1,0,0,235,25,0,0;            67P     35
508,4,0,235,12,1,0,0,235,24,0,0,0,235,20,1,0,0,235,26,1,0;            69P     36
508,4,0,235,19,1,0,0,235,25,1,0,0,235,13,1,0,0,235,26,0,0;            71P     37
508,4,0,235,27,1,0,0,235,28,1,0,0,235,29,1,0,0,235,30,1,0;            73P     38
508,1,0,235,1,1,0;                                                    75P     39
508,4,0,235,31,1,0,0,235,32,1,0,0,235,33,1,0,0,235,28,0,0;            77P     40
508,4,0,235,34,1,0,0,235,35,1,0,0,235,36,1,0,0,235,37,0,0;            79P     41
508,1,0,235,4,1,0;                                                    81P     42
508,4,0,235,38,1,0,0,235,37,1,0,0,235,39,1,0,0,235,40,1,0;            83P     43
508,4,0,235,34,0,0,0,235,41,1,0,0,235,27,0,0,0,235,42,0,0;            85P     44
508,4,0,235,29,0,0,0,235,43,0,0,0,235,36,0,0,0,235,44,1,0;            87P     45
508,4,0,235,38,0,0,0,235,45,1,0,0,235,31,0,0,0,235,41,0,0;            89P     46
508,4,0,235,33,0,0,0,235,46,0,0,0,235,39,0,0,0,235,43,1,0;            91P     47
508,4,0,235,40,0,0,0,235,46,1,0,0,235,32,0,0,0,235,45,0,0;            93P     48
508,4,0,235,35,0,0,0,235,42,1,0,0,235,30,0,0,0,235,44,0,0;            95P     49
508,4,0,235,17,1,0,0,235,23,1,0,0,235,8,1,0,0,235,21,1,0;             97P     50
126,8,2,0,1,0,0,-3.14159265358979,-3.14159265358979,                  99P     51
-3.14159265358979,-1.5707963267949,-1.5707963267949,0.,0.,            99P     52
1.5707963267949,1.5707963267949,3.14159265358979,                     99P     53
3.14159265358979,3.14159265358979,1.,0.70710678118654,1.,             99P     54
0.70710678118654,1.,0.707106781186544,1.,0.707106781186544,1.,        99P     55
21.175,9.75000000003755,46.2500000000001,21.1653848998509,            99P     56
10.9999630194302,46.2500000000001,21.1653848998509,                   99P     57
10.9999630194302,45.0000000000001,21.1653848998509,                   99P     58
10.9999630194302,43.7500000000001,21.175,9.75000000003755,            99P     59
43.7500000000001,21.1846151001491,8.50003698064493,                   99P     60
43.7500000000001,21.1846151001491,8.50003698064493,                   99P     61
45.0000000000001,21.1846151001491,8.50003698064493,                   99P     62
46.2500000000001,21.175,9.75000000003755,46.2500000000001,            99P     63
-3.14159265358979,3.14159265358979,0.,0.,0.;                          99P     64
126,1,1,0,0,1,0,-4.3234015269309D-16,-4.3234015269309D-16,1.12,      101P     65
1.12,1.,1.,21.175,9.75000000003755,46.2500000000001,                 101P     66
19.7750414182803,9.73923108787052,46.2500000000001,                  101P     67
-4.3234015269309D-16,1.12,0.,0.,0.;                                  101P     68
126,8,2,0,1,0,0,-3.14159265358979,-3.14159265358979,                 103P     69
-3.14159265358979,-1.5707963267949,-1.5707963267949,0.,0.,           103P     70
1.5707963267949,1.5707963267949,3.14159265358979,                    103P     71
3.14159265358979,3.14159265358979,1.,0.707106781186544,1.,           103P     72
0.707106781186544,1.,0.707106781186544,1.,0.707106781186544,1.,      103P     73
19.7750414182803,9.73923108787052,46.2500000000001,                  103P     74
19.7846565184294,8.48926806847789,46.2500000000001,                  103P     75
19.7846565184294,8.48926806847789,45.0000000000001,                  103P     76
19.7846565184294,8.48926806847789,43.7500000000001,                  103P     77
19.7750414182803,9.73923108787052,43.7500000000001,                  103P     78
19.7654263181311,10.9891941072631,43.7500000000001,                  103P     79
19.7654263181311,10.9891941072631,45.0000000000001,                  103P     80
19.7654263181311,10.9891941072631,46.2500000000001,                  103P     81
19.7750414182803,9.73923108787052,46.2500000000001,                  103P     82
-3.14159265358979,3.14159265358979,0.,0.,0.;                         103P     83
126,8,2,0,1,0,0,-3.14159265358979,-3.14159265358979,                 105P     84
-3.14159265358979,-1.5707963267949,-1.5707963267949,0.,0.,           105P     85
1.5707963267949,1.5707963267949,3.14159265358979,                    105P     86
3.14159265358979,3.14159265358979,1.,0.707106781186544,1.,           105P     87
0.707106781186544,1.,0.707106781186544,1.,0.707106781186544,1.,      105P     88
-21.175,9.75000000003755,43.7500000000001,-21.1653848998509,         105P     89
10.9999630194302,43.7500000000001,-21.1653848998509,                 105P     90
10.9999630194302,45.0000000000001,-21.1653848998509,                 105P     91
10.9999630194302,46.2500000000001,-21.175,9.75000000003755,          105P     92
46.2500000000001,-21.1846151001491,8.50003698064493,                 105P     93
46.2500000000001,-21.1846151001491,8.50003698064493,                 105P     94
45.0000000000001,-21.1846151001491,8.50003698064493,                 105P     95
43.7500000000001,-21.175,9.75000000003755,43.7500000000001,          105P     96
-3.14159265358979,3.14159265358979,0.,0.,0.;                         105P     97
126,1,1,0,0,1,0,-4.10194090021436D-16,-4.10194090021436D-16,         107P     98
1.12,1.12,1.,1.,-21.175,9.75000000003755,43.7500000000001,           107P     99
-19.7750414182803,9.73923108787052,43.7500000000001,                 107P    100
-4.10194090021436D-16,1.12,0.,0.,0.;                                 107P    101
126,8,2,0,1,0,0,-3.14159265358979,-3.14159265358979,                 109P    102
-3.14159265358979,-1.5707963267949,-1.5707963267949,0.,0.,           109P    103
1.5707963267949,1.5707963267949,3.14159265358979,                    109P    104
3.14159265358979,3.14159265358979,1.,0.707106781186544,1.,           109P    105
0.707106781186544,1.,0.70710678118654,1.,0.70710678118654,1.,        109P    106
-19.7750414182803,9.73923108787052,43.7500000000001,                 109P    107
-19.7846565184294,8.48926806847789,43.7500000000001,                 109P    108
-19.7846565184294,8.48926806847789,45.0000000000001,                 109P    109
-19.7846565184294,8.48926806847789,46.2500000000001,                 109P    110
-19.7750414182803,9.73923108787052,46.2500000000001,                 109P    111
-19.7654263181311,10.9891941072631,46.2500000000001,                 109P    112
-19.7654263181311,10.9891941072631,45.0000000000001,                 109P    113
-19.7654263181311,10.9891941072631,43.7500000000001,                 109P    114
-19.7750414182803,9.73923108787052,43.7500000000001,                 109P    115
-3.14159265358979,3.14159265358979,0.,0.,0.;                         109P    116
126,1,1,0,0,1,0,-0.0141914042667161,-0.0141914042667161,             111P    117
1.82639922328917,1.82639922328917,1.,1.,19.8499585804944,            111P    118
1.73472347597681D-17,25.1500414195056,19.7083830630693,              111P    119
18.4048172653354,25.2916169369307,-0.0141914042667161,               111P    120
1.82639922328917,0.,0.,0.;                                           111P    121
126,1,1,0,0,1,0,-3.17249585804943,-3.17249585804943,                 113P    122
0.797495858049437,0.797495858049437,1.,1.,19.8499585804944,0.,       113P    123
64.8499585804943,19.8499585804944,0.,25.1500414195056,               113P    124
-3.17249585804943,0.797495858049437,0.,0.,0.;                        113P    125
126,1,1,0,0,1,0,-0.816785885029325,-0.816785885029325,               115P    126
1.02380474252656,1.02380474252656,1.,1.,19.7083830630693,            115P    127
18.4048172653354,64.7083830630693,19.8499585804944,                  115P    128
-2.22044604925031D-15,64.8499585804944,-0.816785885029325,           115P    129
1.02380474252656,0.,0.,0.;                                           115P    130
126,1,1,0,0,1,0,2.52916169369307,2.52916169369307,                   117P    131
6.47083830630692,6.47083830630692,1.,1.,19.7083830630693,            117P    132
18.4048172653354,25.2916169369307,19.7083830630693,                  117P    133
18.4048172653354,64.7083830630692,2.52916169369307,                  117P    134
6.47083830630692,0.,0.,0.;                                           117P    135
126,1,1,0,0,1,0,-1.2944805691019,-1.2944805691019,                   119P    136
0.368675290181534,0.368675290181534,1.,1.,19.7083830630693,          119P    137
18.4048172653354,25.2916169369307,8.12765212413921,21.3,             119P    138
36.8723478758608,-1.2944805691019,0.368675290181534,0.,0.,0.;        119P    139
126,1,1,0,0,1,0,3.23821374122179,3.23821374122179,                   121P    140
4.90136960050522,4.90136960050522,1.,1.,8.12765212413928,21.3,       121P    141
53.1276521241392,19.7083830630693,18.4048172653354,                  121P    142
64.7083830630692,3.23821374122179,4.90136960050522,0.,0.,0.;         121P    143
126,1,1,0,0,1,0,1.85223478758609,1.85223478758609,                   123P    144
3.47776521241393,3.47776521241393,1.,1.,8.12765212413921,21.3,       123P    145
36.8723478758608,8.12765212413928,21.3,53.1276521241392,             123P    146
1.85223478758609,3.47776521241393,0.,0.,0.;                          123P    147
126,1,1,0,0,1,0,-0.886012558128164,-0.886012558128164,               125P    148
0.95457806942772,0.95457806942772,1.,1.,-19.7083830630692,           125P    149
18.4048172653354,25.2916169369307,-19.8499585804944,                 125P    150
-3.33066907387547D-15,25.1500414195056,-0.886012558128164,           125P    151
0.95457806942772,0.,0.,0.;                                           125P    152
126,1,1,0,0,1,0,2.52916169369307,2.52916169369307,                   127P    153
6.47083830630693,6.47083830630693,1.,1.,-19.7083830630693,           127P    154
18.4048172653354,25.2916169369307,-19.7083830630693,                 127P    155
18.4048172653354,64.7083830630692,2.52916169369307,                  127P    156
6.47083830630693,0.,0.,0.;                                           127P    157
126,1,1,0,0,1,0,-1.96419140768756,-1.96419140768756,                 129P    158
-0.12360078013168,-0.12360078013168,1.,1.,-19.8499585804944,         129P    159
-2.22044604925031D-15,64.8499585804944,-19.7083830630693,            129P    160
18.4048172653354,64.7083830630693,-1.96419140768756,                 129P    161
-0.12360078013168,0.,0.,0.;                                          129P    162
126,1,1,0,0,1,0,-0.797495858049436,-0.797495858049436,               131P    163
3.17249585804944,3.17249585804944,1.,1.,-19.8499585804944,           131P    164
-1.11022302462516D-15,25.1500414195056,-19.8499585804944,            131P    165
-1.11022302462516D-15,64.8499585804944,-0.797495858049436,           131P    166
3.17249585804944,0.,0.,0.;                                           131P    167
126,1,1,0,0,1,0,-3.0285818731878,-3.0285818731878,                   133P    168
-1.36542601390436,-1.36542601390436,1.,1.,-8.12765212413913,         133P    169
21.3,36.8723478758608,-19.7083830630692,18.4048172653354,            133P    170
25.2916169369307,-3.0285818731878,-1.36542601390436,0.,0.,0.;        133P    171
126,1,1,0,0,1,0,-3.47776521241391,-3.47776521241391,                 135P    172
-1.85223478758607,-1.85223478758607,1.,1.,-8.1276521241392,21.3,     135P    173
53.1276521241392,-8.12765212413913,21.3,36.8723478758608,            135P    174
-3.47776521241391,-1.85223478758607,0.,0.,0.;                        135P    175
126,1,1,0,0,1,0,-2.24146301749896,-2.24146301749896,                 137P    176
-0.57830715821552,-0.57830715821552,1.,1.,-19.7083830630693,         137P    177
18.4048172653354,64.7083830630693,-8.1276521241392,21.3,             137P    178
53.1276521241392,-2.24146301749896,-0.57830715821552,0.,0.,0.;       137P    179
126,1,1,0,0,1,0,-6.48499585804944,-6.48499585804944,                 139P    180
-2.51500414195057,-2.51500414195057,1.,1.,19.8499585804944,          139P    181
-1.73472347597681D-17,25.1500414195056,-19.8499585804944,            139P    182
-1.73472347597681D-17,25.1500414195056,-6.48499585804944,            139P    183
-2.51500414195057,0.,0.,0.;                                          139P    184
126,1,1,0,0,1,0,2.52916169369308,2.52916169369308,                   141P    185
6.47083830630693,6.47083830630693,1.,1.,-19.7083830630692,           141P    186
18.4048172653354,25.2916169369308,19.7083830630693,                  141P    187
18.4048172653354,25.2916169369307,2.52916169369308,                  141P    188
6.47083830630693,0.,0.,0.;                                           141P    189
126,1,1,0,0,1,0,2.51500414195056,2.51500414195056,                   143P    190
6.48499585804944,6.48499585804944,1.,1.,-19.8499585804944,           143P    191
-1.11022302462516D-15,64.8499585804944,19.8499585804944,             143P    192
-1.11022302462516D-15,64.8499585804944,2.51500414195056,             143P    193
6.48499585804944,0.,0.,0.;                                           143P    194
126,1,1,0,0,1,0,2.52916169369307,2.52916169369307,                   145P    195
6.47083830630693,6.47083830630693,1.,1.,-19.7083830630693,           145P    196
18.4048172653354,64.7083830630693,19.7083830630693,                  145P    197
18.4048172653354,64.7083830630693,2.52916169369307,                  145P    198
6.47083830630693,0.,0.,0.;                                           145P    199
126,1,1,0,0,1,0,3.68723478758609,3.68723478758609,                   147P    200
5.31276521241392,5.31276521241392,1.,1.,-8.12765212413914,21.3,      147P    201
36.8723478758608,8.12765212413921,21.3,36.8723478758608,             147P    202
3.68723478758609,5.31276521241392,0.,0.,0.;                          147P    203
126,1,1,0,0,1,0,3.68723478758608,3.68723478758608,                   149P    204
5.31276521241393,5.31276521241393,1.,1.,-8.1276521241392,21.3,       149P    205
53.1276521241392,8.12765212413929,21.3,53.1276521241392,             149P    206
3.68723478758608,5.31276521241393,0.,0.,0.;                          149P    207
126,1,1,0,0,1,0,-0.0163451867038928,-0.0163451867038928,             151P    208
1.93377019450545,1.93377019450545,1.,1.,21.25,                       151P    209
-6.93889390390723D-17,23.75,21.1,19.5000000000751,23.9,              151P    210
-0.0163451867038928,1.93377019450545,0.,0.,0.;                       151P    211
126,1,1,0,0,1,0,2.39,2.39,6.61,6.61,1.,1.,21.1,19.5000000000751,     153P    212
23.9,21.1,19.5000000000751,66.1,2.39,6.61,0.,0.,0.;                  153P    213
126,1,1,0,0,1,0,-0.92415685624561,-0.92415685624561,                 155P    214
1.02595852496374,1.02595852496374,1.,1.,21.1,19.5000000000751,       155P    215
66.1,21.25,0.,66.25,-0.92415685624561,1.02595852496374,0.,0.,0.;     155P    216
126,1,1,0,0,1,0,-3.3125,-3.3125,0.937500000000001,                   157P    217
0.937500000000001,1.,1.,21.25,-3.46944695195361D-17,66.25,21.25,     157P    218
-3.46944695195361D-17,23.75,-3.3125,0.937500000000001,0.,0.,0.;      157P    219
126,1,1,0,0,1,0,-1.46921541626713,-1.46921541626713,                 159P    220
0.369044630623729,0.369044630623729,1.,1.,21.1,19.5000000000751,     159P    221
23.9,8.3,22.7,36.7,-1.46921541626713,0.369044630623729,0.,0.,0.;     159P    222
126,1,1,0,0,1,0,1.83500000000001,1.83500000000001,3.495,3.495,       161P    223
1.,1.,8.29999999999999,22.7,36.7,8.30000000000006,22.7,              161P    224
53.2999999999999,1.83500000000001,3.495,0.,0.,0.;                    161P    225
126,1,1,0,0,1,0,3.23784440077958,3.23784440077958,                   163P    226
5.07610444767045,5.07610444767045,1.,1.,8.3,22.7,                    163P    227
53.2999999999999,21.1,19.5000000000751,66.1,3.23784440077958,        163P    228
5.07610444767045,0.,0.,0.;                                           163P    229
126,1,1,0,0,1,0,-0.993383529344449,-0.993383529344449,               165P    230
0.956731851864897,0.956731851864897,1.,1.,-21.1,                     165P    231
19.5000000000751,23.9,-21.25,-1.11022302462516D-15,23.75,            165P    232
-0.993383529344449,0.956731851864897,0.,0.,0.;                       165P    233
126,1,1,0,0,1,0,-0.9375,-0.9375,3.3125,3.3125,1.,1.,-21.25,0.,       167P    234
23.75,-21.25,0.,66.25,-0.9375,3.3125,0.,0.,0.;                       167P    235
126,1,1,0,0,1,0,-1.96634519012474,-1.96634519012474,                 169P    236
-0.0162298089153943,-0.0162298089153943,1.,1.,-21.25,                169P    237
-2.22044604925031D-15,66.25,-21.1,19.5000000000751,66.1,             169P    238
-1.96634519012474,-0.0162298089153943,0.,0.,0.;                      169P    239
126,1,1,0,0,1,0,2.39,2.39,6.61,6.61,1.,1.,-21.1,                     171P    240
19.5000000000751,23.9,-21.1,19.5000000000751,66.1,2.39,6.61,0.,      171P    241
0.,0.;                                                               171P    242
126,1,1,0,0,1,0,-3.02895121362998,-3.02895121362998,                 173P    243
-1.19069116673913,-1.19069116673913,1.,1.,-8.3,22.7,                 173P    244
36.6999999999999,-21.1,19.5000000000751,23.9,-3.02895121362998,      173P    245
-1.19069116673913,0.,0.,0.;                                          173P    246
126,1,1,0,0,1,0,-2.41619786466419,-2.41619786466419,                 175P    247
-0.577937817773328,-0.577937817773328,1.,1.,-21.1,                   175P    248
19.5000000000751,66.1,-8.3,22.7,53.3,-2.41619786466419,              175P    249
-0.577937817773328,0.,0.,0.;                                         175P    250
126,1,1,0,0,1,0,-3.49499999999999,-3.49499999999999,                 177P    251
-1.83499999999998,-1.83499999999998,1.,1.,-8.29999999999999,         177P    252
22.7,53.3,-8.29999999999992,22.7,36.6999999999999,                   177P    253
-3.49499999999999,-1.83499999999998,0.,0.,0.;                        177P    254
126,1,1,0,0,1,0,2.39,2.39,6.61,6.61,1.,1.,-21.1,                     179P    255
19.5000000000751,23.9,21.1,19.5000000000751,23.9,2.39,6.61,0.,       179P    256
0.,0.;                                                               179P    257
126,1,1,0,0,1,0,2.375,2.375,6.625,6.625,1.,1.,-21.25,0.,23.75,       181P    258
21.25,0.,23.75,2.375,6.625,0.,0.,0.;                                 181P    259
126,1,1,0,0,1,0,2.39,2.39,6.61,6.61,1.,1.,-21.1,                     183P    260
19.5000000000751,66.1,21.1,19.5000000000751,66.1,2.39,6.61,0.,       183P    261
0.,0.;                                                               183P    262
126,1,1,0,0,1,0,2.375,2.375,6.625,6.625,1.,1.,-21.25,0.,66.25,       185P    263
21.25,0.,66.25,2.375,6.625,0.,0.,0.;                                 185P    264
126,1,1,0,0,1,0,3.67,3.67,5.33,5.33,1.,1.,-8.3,22.7,36.7,8.3,        187P    265
22.7,36.7,3.67,5.33,0.,0.,0.;                                        187P    266
126,1,1,0,0,1,0,3.67,3.67,5.33,5.33,1.,1.,-8.3,22.7,53.3,8.3,        189P    267
22.7,53.3,3.67,5.33,0.,0.,0.;                                        189P    268
128,1,8,1,2,0,1,0,0,1,-4.3234015269309D-16,-4.3234015269309D-16,     191P    269
1.12,1.12,-3.14159265358979,-3.14159265358979,-3.14159265358979,     191P    270
-1.5707963267949,-1.5707963267949,0.,0.,1.5707963267949,             191P    271
1.5707963267949,3.14159265358979,3.14159265358979,                   191P    272
3.14159265358979,1.,1.,0.707106781186548,0.707106781186548,1.,       191P    273
1.,0.707106781186548,0.707106781186548,1.,1.,0.707106781186548,      191P    274
0.707106781186548,1.,1.,0.707106781186548,0.707106781186548,1.,      191P    275
1.,21.175,9.75000000003755,46.2500000000001,19.7750414182803,        191P    276
9.73923108787052,46.2500000000001,21.1653848998509,                  191P    277
10.9999630194302,46.2500000000001,19.7654263181311,                  191P    278
10.9891941072631,46.2500000000001,21.1653848998509,                  191P    279
10.9999630194302,45.0000000000001,19.7654263181311,                  191P    280
10.9891941072631,45.0000000000001,21.1653848998509,                  191P    281
10.9999630194302,43.7500000000001,19.7654263181311,                  191P    282
10.9891941072631,43.7500000000001,21.175,9.75000000003755,           191P    283
43.7500000000001,19.7750414182803,9.73923108787052,                  191P    284
43.7500000000001,21.1846151001491,8.50003698064493,                  191P    285
43.7500000000001,19.7846565184294,8.48926806847789,                  191P    286
43.7500000000001,21.1846151001491,8.50003698064493,                  191P    287
45.0000000000001,19.7846565184294,8.48926806847789,                  191P    288
45.0000000000001,21.1846151001491,8.50003698064493,                  191P    289
46.2500000000001,19.7846565184294,8.48926806847789,                  191P    290
46.2500000000001,21.175,9.75000000003755,46.2500000000001,           191P    291
19.7750414182803,9.73923108787052,46.2500000000001,                  191P    292
-4.3234015269309D-16,1.12,-3.14159265358979,3.14159265358979;        191P    293
128,1,8,1,2,0,1,0,0,1,-4.10194090021436D-16,                         193P    294
-4.10194090021436D-16,1.12,1.12,-3.14159265358979,                   193P    295
-3.14159265358979,-3.14159265358979,-1.5707963267949,                193P    296
-1.5707963267949,0.,0.,1.5707963267949,1.5707963267949,              193P    297
3.14159265358979,3.14159265358979,3.14159265358979,1.,1.,            193P    298
0.707106781186548,0.707106781186548,1.,1.,0.707106781186548,         193P    299
0.707106781186548,1.,1.,0.707106781186548,0.707106781186548,1.,      193P    300
1.,0.707106781186548,0.707106781186548,1.,1.,-21.175,                193P    301
9.75000000003755,43.7500000000001,-19.7750414182803,                 193P    302
9.73923108787052,43.7500000000001,-21.1653848998509,                 193P    303
10.9999630194302,43.7500000000001,-19.7654263181311,                 193P    304
10.9891941072631,43.7500000000001,-21.1653848998509,                 193P    305
10.9999630194302,45.0000000000001,-19.7654263181311,                 193P    306
10.9891941072631,45.0000000000001,-21.1653848998509,                 193P    307
10.9999630194302,46.2500000000001,-19.7654263181311,                 193P    308
10.9891941072631,46.2500000000001,-21.175,9.75000000003755,          193P    309
46.2500000000001,-19.7750414182803,9.73923108787052,                 193P    310
46.2500000000001,-21.1846151001491,8.50003698064493,                 193P    311
46.2500000000001,-19.7846565184294,8.48926806847789,                 193P    312
46.2500000000001,-21.1846151001491,8.50003698064493,                 193P    313
45.0000000000001,-19.7846565184294,8.48926806847789,                 193P    314
45.0000000000001,-21.1846151001491,8.50003698064493,                 193P    315
43.7500000000001,-19.7846565184294,8.48926806847789,                 193P    316
43.7500000000001,-21.175,9.75000000003755,43.7500000000001,          193P    317
-19.7750414182803,9.73923108787052,43.7500000000001,                 193P    318
-4.10194090021436D-16,1.12,-3.14159265358979,3.14159265358979;       193P    319
128,1,1,1,1,0,0,1,0,0,7.6923076918464D-5,7.6923076918464D-5,         195P    320
1.84261310092706,1.84261310092706,2.51400414195056,                  195P    321
2.51400414195056,6.48599585804944,6.48599585804944,1.,1.,1.,1.,      195P    322
19.7083061422681,18.4148169694905,25.1400414195056,                  195P    323
19.8500355012956,-0.00999970415514321,25.1400414195056,              195P    324
19.7083061422681,18.4148169694905,64.8599585804944,                  195P    325
19.8500355012956,-0.00999970415514321,64.8599585804944,              195P    326
7.6923076918464D-5,1.84261310092706,2.51400414195056,                195P    327
6.48599585804944;                                                    195P    328
128,1,1,1,1,0,0,1,0,0,0.107444590534722,0.107444590534722,           197P    329
1.30315901260975,1.30315901260975,2.52816169369307,                  197P    330
2.52816169369307,6.47183830630692,6.47183830630692,1.,1.,1.,1.,      197P    331
8.11795069913774,21.3024253562503,25.2816169369307,                  197P    332
19.7180844880707,18.4023919090851,25.2816169369307,                  197P    333
8.11795069913774,21.3024253562503,64.7183830630692,                  197P    334
19.7180844880707,18.4023919090851,64.7183830630692,                  197P    335
0.107444590534722,1.30315901260975,2.52816169369307,                 197P    336
6.47183830630692;                                                    197P    337
128,1,1,1,1,0,0,1,0,0,0.107444590534722,0.107444590534722,           199P    338
1.94998076838487,1.94998076838487,2.51400414195056,                  199P    339
2.51400414195056,6.48599585804944,6.48599585804944,1.,1.,1.,1.,      199P    340
-19.8500355012956,-0.00999970415514584,25.1400414195056,             199P    341
-19.7083061422681,18.4148169694905,25.1400414195056,                 199P    342
-19.8500355012956,-0.00999970415514584,64.8599585804944,             199P    343
-19.7083061422681,18.4148169694905,64.8599585804944,                 199P    344
0.107444590534722,1.94998076838487,2.51400414195056,                 199P    345
6.48599585804944;                                                    199P    346
128,1,1,1,1,0,0,1,0,0,0.016234787586073,0.016234787586073,           201P    347
1.21194920966111,1.21194920966111,2.52816169369307,                  201P    348
2.52816169369307,6.47183830630693,6.47183830630693,1.,1.,1.,1.,      201P    349
-19.7180844880707,18.4023919090851,25.2816169369307,                 201P    350
-8.11795069913766,21.3024253562503,25.2816169369307,                 201P    351
-19.7180844880707,18.4023919090851,64.7183830630693,                 201P    352
-8.11795069913766,21.3024253562503,64.7183830630693,                 201P    353
0.016234787586073,1.21194920966111,2.52816169369307,                 201P    354
6.47183830630693;                                                    201P    355
128,1,1,1,1,0,0,1,0,0,7.69230769183506D-5,7.69230769183506D-5,       203P    356
1.84261310092706,1.84261310092706,2.51400414195057,                  203P    357
2.51400414195057,6.48599585804944,6.48599585804944,1.,1.,1.,1.,      203P    358
-19.8599585804944,18.4148169694905,25.2916938577319,                 203P    359
-19.8599585804944,-0.00999970415514434,25.1499644987044,             203P    360
19.8599585804944,18.4148169694905,25.2916938577319,                  203P    361
19.8599585804944,-0.00999970415514434,25.1499644987044,              203P    362
7.69230769183506D-5,1.84261310092706,2.51400414195057,               203P    363
6.48599585804944;                                                    203P    364
128,1,1,1,1,0,0,1,0,0,0.107444590534722,0.107444590534722,           205P    365
1.94998076838487,1.94998076838487,2.51400414195056,                  205P    366
2.51400414195056,6.48599585804944,6.48599585804944,1.,1.,1.,1.,      205P    367
-19.8599585804944,-0.00999970415514362,64.8500355012956,             205P    368
-19.8599585804944,18.4148169694905,64.7083061422681,                 205P    369
19.8599585804944,-0.00999970415514362,64.8500355012955,              205P    370
19.8599585804944,18.4148169694905,64.7083061422681,                  205P    371
0.107444590534722,1.94998076838487,2.51400414195056,                 205P    372
6.48599585804944;                                                    205P    373
128,1,1,1,1,0,0,1,0,0,0.107444590534722,0.107444590534722,           207P    374
1.30315901260975,1.30315901260975,2.52816169369308,                  207P    375
2.52816169369308,6.47183830630693,6.47183830630693,1.,1.,1.,1.,      207P    376
-19.7183830630692,21.3024253562503,36.8820493008623,                 207P    377
-19.7183830630692,18.4023919090851,25.2819155119293,                 207P    378
19.7183830630693,21.3024253562503,36.8820493008622,                  207P    379
19.7183830630693,18.4023919090851,25.2819155119293,                  207P    380
0.107444590534722,1.30315901260975,2.52816169369308,                 207P    381
6.47183830630693;                                                    207P    382
128,1,1,1,1,0,0,1,0,0,0.0162347875860783,0.0162347875860783,         209P    383
1.21194920966111,1.21194920966111,2.52816169369307,                  209P    384
2.52816169369307,6.47183830630693,6.47183830630693,1.,1.,1.,1.,      209P    385
-19.7183830630693,18.4023919090851,64.7180844880707,                 209P    386
-19.7183830630693,21.3024253562503,53.1179506991377,                 209P    387
19.7183830630693,18.4023919090851,64.7180844880707,                  209P    388
19.7183830630693,21.3024253562503,53.1179506991377,                  209P    389
0.0162347875860783,1.21194920966111,2.52816169369307,                209P    390
6.47183830630693;                                                    209P    391
128,1,1,1,1,0,0,1,0,0,0.0162347875860779,0.0162347875860779,         211P    392
1.64376521241392,1.64376521241392,3.68623478758608,                  211P    393
3.68623478758608,5.31376521241393,5.31376521241393,1.,1.,1.,1.,      211P    394
-8.1376521241392,21.3,53.1376521241392,-8.1376521241392,21.3,        211P    395
36.8623478758608,8.13765212413929,21.3,53.1376521241392,             211P    396
8.13765212413929,21.3,36.8623478758608,0.0162347875860779,           211P    397
1.64376521241392,3.68623478758608,5.31376521241393;                  211P    398
128,1,1,1,1,0,0,1,0,0,-0.00100000000000044,-0.00100000000000044,     213P    399
1.95105769146179,1.95105769146179,2.374,2.374,6.626,6.626,1.,1.,     213P    400
1.,1.,21.2500769208012,-0.0099997041551432,23.74,                    213P    401
21.0999230791988,19.5099997042302,23.74,21.2500769208012,            213P    402
-0.0099997041551432,66.26,21.0999230791988,19.5099997042302,         213P    403
66.26,-0.00100000000000044,1.95105769146179,2.374,6.626;             213P    404
128,1,1,1,1,0,0,1,0,0,-0.001,-0.001,1.32039380019583,                215P    405
1.32039380019583,2.389,2.389,6.611,6.611,1.,1.,1.,1.,                215P    406
21.1097014250015,19.4975746438247,23.89,8.29029857499853,            215P    407
22.7024253562503,23.89,21.1097014250015,19.4975746438247,66.11,      215P    408
8.29029857499853,22.7024253562503,66.11,-0.001,1.32039380019583,     215P    409
2.389,6.611;                                                         215P    410
128,1,1,1,1,0,0,1,0,0,-0.00100000000000022,-0.00100000000000022,     217P    411
1.95105769146179,1.95105769146179,2.374,2.374,6.626,6.626,1.,1.,     217P    412
1.,1.,-21.0999230791988,19.5099997042302,23.74,                      217P    413
-21.2500769208012,-0.00999970415514362,23.74,-21.0999230791988,      217P    414
19.5099997042302,66.26,-21.2500769208012,-0.00999970415514362,       217P    415
66.26,-0.00100000000000022,1.95105769146179,2.374,6.626;             217P    416
128,1,1,1,1,0,0,1,0,0,-0.0010000000000081,-0.0010000000000081,       219P    417
1.32039380019583,1.32039380019583,2.389,2.389,6.611,6.611,1.,1.,     219P    418
1.,1.,-8.29029857499846,22.7024253562503,23.89,                      219P    419
-21.1097014250015,19.4975746438247,23.89,-8.29029857499846,          219P    420
22.7024253562503,66.11,-21.1097014250015,19.4975746438247,66.11,     219P    421
-0.0010000000000081,1.32039380019583,2.389,6.611;                    219P    422
128,1,1,1,1,0,0,1,0,0,-0.00100000000000033,-0.00100000000000033,     221P    423
1.95105769146179,1.95105769146179,2.374,2.374,6.626,6.626,1.,1.,     221P    424
1.,1.,-21.26,-0.00999970415514209,23.7499230791988,-21.26,           221P    425
19.5099997042302,23.9000769208012,21.26,-0.00999970415514209,        221P    426
23.7499230791988,21.26,19.5099997042302,23.9000769208012,            221P    427
-0.00100000000000033,1.95105769146179,2.374,6.626;                   221P    428
128,1,1,1,1,0,0,1,0,0,-0.00100000000000067,-0.00100000000000067,     223P    429
1.95105769146179,1.95105769146179,2.374,2.374,6.626,6.626,1.,1.,     223P    430
1.,1.,-21.26,19.5099997042302,66.0999230791988,-21.26,               223P    431
-0.0099997041551414,66.2500769208012,21.26,19.5099997042302,         223P    432
66.0999230791988,21.26,-0.0099997041551414,66.2500769208012,         223P    433
-0.00100000000000067,1.95105769146179,2.374,6.626;                   223P    434
128,1,1,1,1,0,0,1,0,0,-0.0010000000000003,-0.0010000000000003,       225P    435
1.32039380019583,1.32039380019583,2.389,2.389,6.611,6.611,1.,1.,     225P    436
1.,1.,-21.11,19.4975746438247,23.8902985749985,-21.11,               225P    437
22.7024253562503,36.7097014250015,21.11,19.4975746438247,            225P    438
23.8902985749985,21.11,22.7024253562503,36.7097014250015,            225P    439
-0.0010000000000003,1.32039380019583,2.389,6.611;                    225P    440
128,1,1,1,1,0,0,1,0,0,-0.00100000000000704,-0.00100000000000704,     227P    441
1.32039380019583,1.32039380019583,2.389,2.389,6.611,6.611,1.,1.,     227P    442
1.,1.,-21.11,22.7024253562503,53.2902985749985,-21.11,               227P    443
19.4975746438247,66.1097014250015,21.11,22.7024253562503,            227P    444
53.2902985749985,21.11,19.4975746438247,66.1097014250015,            227P    445
-0.00100000000000704,1.32039380019583,2.389,6.611;                   227P    446
128,1,1,1,1,0,0,1,0,0,-0.00100000000000718,-0.00100000000000718,     229P    447
1.661,1.661,3.669,3.669,5.33100000000001,5.33100000000001,1.,1.,     229P    448
1.,1.,-8.31,22.7,36.6899999999999,-8.31,22.7,53.31,                  229P    449
8.31000000000007,22.7,36.6899999999999,8.31000000000007,22.7,        229P    450
53.31,-0.00100000000000718,1.661,3.669,5.33100000000001;             229P    451
128,1,1,1,1,0,0,1,0,0,-0.00100000000000058,-0.00100000000000058,     231P    452
4.251,4.251,2.374,2.374,6.626,6.626,1.,1.,1.,1.,-21.26,0.,66.26,     231P    453
-21.26,0.,23.74,21.26,0.,66.26,21.26,0.,23.74,                       231P    454
-0.00100000000000058,4.251,2.374,6.626;                              231P    455
502,28,21.175,9.75000000003755,46.2500000000001,                     233P    456
19.7750414182803,9.73923108787052,46.2500000000001,-21.175,          233P    457
9.75000000003755,43.7500000000001,-19.7750414182803,                 233P    458
9.73923108787052,43.7500000000001,19.8499585804944,0.,               233P    459
25.1500414195056,19.7083830630693,18.4048172653354,                  233P    460
25.2916169369307,19.8499585804944,0.,64.8499585804943,               233P    461
19.7083830630693,18.4048172653354,64.7083830630692,                  233P    462
8.12765212413922,21.3,36.8723478758608,8.12765212413929,21.3,        233P    463
53.1276521241392,-19.7083830630692,18.4048172653354,                 233P    464
25.2916169369307,-19.8499585804944,0.,25.1500414195056,              233P    465
-19.7083830630693,18.4048172653354,64.7083830630692,                 233P    466
-19.8499585804944,0.,64.8499585804944,-8.12765212413913,21.3,        233P    467
36.8723478758608,-8.1276521241392,21.3,53.1276521241392,21.25,       233P    468
0.,23.75,21.1,19.5000000000751,23.9,21.1,19.5000000000751,66.1,      233P    469
21.25,0.,66.25,8.3,22.7,36.7,8.3,22.7,53.2999999999999,-21.1,        233P    470
19.5000000000751,23.9,-21.25,0.,23.75,-21.25,0.,66.25,-21.1,         233P    471
19.5000000000751,66.1,-8.3,22.7,36.6999999999999,-8.3,22.7,53.3;     233P    472
504,46,99,233,1,233,1,101,233,1,233,2,103,233,2,233,2,105,233,3,     235P    473
233,3,107,233,3,233,4,109,233,4,233,4,111,233,5,233,6,113,233,7,     235P    474
233,5,115,233,8,233,7,117,233,6,233,8,119,233,6,233,9,121,233,       235P    475
10,233,8,123,233,9,233,10,125,233,11,233,12,127,233,11,233,13,       235P    476
129,233,14,233,13,131,233,12,233,14,133,233,15,233,11,135,233,       235P    477
16,233,15,137,233,13,233,16,139,233,5,233,12,141,233,11,233,6,       235P    478
143,233,14,233,7,145,233,13,233,8,147,233,15,233,9,149,233,16,       235P    479
233,10,151,233,17,233,18,153,233,18,233,19,155,233,19,233,20,        235P    480
157,233,20,233,17,159,233,18,233,21,161,233,21,233,22,163,233,       235P    481
22,233,19,165,233,23,233,24,167,233,24,233,25,169,233,25,233,26,     235P    482
171,233,23,233,26,173,233,27,233,23,175,233,26,233,28,177,233,       235P    483
28,233,27,179,233,23,233,18,181,233,24,233,17,183,233,26,233,19,     235P    484
185,233,25,233,20,187,233,27,233,21,189,233,28,233,22;               235P    485
406,1,5HBody2;                                                       237P    486
314,62.7450980392157,62.7450980392157,62.7450980392157,13HSteel      239P    487
- Satin;                                                             239P    488
S      1G      3D    240P    488                                        T      1
