                                                                        S      1
,,29HFeiyu Gimbal Mount Standin v2,29HFeiyu Gimbal Mount Standin v2,7HunG      1
known,7Hunknown,32,38,7,99,15,,1.,2,2HMM,1,0.08,15H20170428.142944,0.01,G      2
10000.,7Hunknown,7Hunknown,11,0,;                                       G      3
     186       1                                                00000000D      1
     186            -151       1       0                               0D      2
     514       2                                                00010000D      3
     514                       1       1                               0D      4
     510       3                                                00010000D      5
     510            -151       1       1                               0D      6
     510       4                                                00010000D      7
     510            -151       1       1                               0D      8
     510       5                                                00010000D      9
     510            -151       1       1                               0D     10
     510       6                                                00010000D     11
     510            -151       1       1                               0D     12
     510       7                                                00010000D     13
     510            -151       1       1                               0D     14
     510       8                                                00010000D     15
     510            -151       1       1                               0D     16
     510       9                                                00010000D     17
     510            -151       1       1                               0D     18
     510      10                                                00010000D     19
     510            -151       1       1                               0D     20
     510      11                                                00010000D     21
     510            -151       1       1                               0D     22
     510      12                                                00010000D     23
     510            -151       1       1                               0D     24
     510      13                                                00010000D     25
     510            -151       1       1                               0D     26
     510      14                                                00010000D     27
     510            -151       1       1                               0D     28
     508      15                                                00010000D     29
     508                       1       1                               0D     30
     508      16                                                00010000D     31
     508                       1       1                               0D     32
     508      17                                                00010000D     33
     508                       1       1                               0D     34
     508      18                                                00010000D     35
     508                       1       1                               0D     36
     508      19                                                00010000D     37
     508                       1       1                               0D     38
     508      20                                                00010000D     39
     508                       1       1                               0D     40
     508      21                                                00010000D     41
     508                       1       1                               0D     42
     508      22                                                00010000D     43
     508                       1       1                               0D     44
     508      23                                                00010000D     45
     508                       1       1                               0D     46
     508      24                                                00010000D     47
     508                       1       1                               0D     48
     508      25                                                00010000D     49
     508                       2       1                               0D     50
     508      27                                                00010000D     51
     508                       1       1                               0D     52
     508      28                                                00010000D     53
     508                       1       1                               0D     54
     508      29                                                00010000D     55
     508                       2       1                               0D     56
     508      31                                                00010000D     57
     508                       1       1                               0D     58
     508      32                                                00010000D     59
     508                       1       1                               0D     60
     126      33                                                00010000D     61
     126       0               8       0                               0D     62
     126      41                                                00010000D     63
     126       0               2       0                               0D     64
     126      43                                                00010000D     65
     126       0               8       0                               0D     66
     126      51                                                00010000D     67
     126       0               8       0                               0D     68
     126      59                                                00010000D     69
     126       0               2       0                               0D     70
     126      61                                                00010000D     71
     126       0               8       0                               0D     72
     126      69                                                00010000D     73
     126       0               2       0                               0D     74
     126      71                                                00010000D     75
     126       0               2       0                               0D     76
     126      73                                                00010000D     77
     126       0               2       0                               0D     78
     126      75                                                00010000D     79
     126       0               2       0                               0D     80
     126      77                                                00010000D     81
     126       0               2       0                               0D     82
     126      79                                                00010000D     83
     126       0               2       0                               0D     84
     126      81                                                00010000D     85
     126       0               2       0                               0D     86
     126      83                                                00010000D     87
     126       0               2       0                               0D     88
     126      85                                                00010000D     89
     126       0               2       0                               0D     90
     126      87                                                00010000D     91
     126       0               2       0                               0D     92
     126      89                                                00010000D     93
     126       0               3       0                               0D     94
     126      92                                                00010000D     95
     126       0               3       0                               0D     96
     126      95                                                00010000D     97
     126       0               2       0                               0D     98
     126      97                                                00010000D     99
     126       0               2       0                               0D    100
     126      99                                                00010000D    101
     126       0               3       0                               0D    102
     126     102                                                00010000D    103
     126       0               2       0                               0D    104
     126     104                                                00010000D    105
     126       0               3       0                               0D    106
     126     107                                                00010000D    107
     126       0               3       0                               0D    108
     126     110                                                00010000D    109
     126       0               2       0                               0D    110
     126     112                                                00010000D    111
     126       0               2       0                               0D    112
     126     114                                                00010000D    113
     126       0               2       0                               0D    114
     126     116                                                00010000D    115
     126       0               2       0                               0D    116
     126     118                                                00010000D    117
     126       0               2       0                               0D    118
     126     120                                                00010000D    119
     126       0               2       0                               0D    120
     128     122                                                00010000D    121
     128       0    -151      12       0                               0D    122
     128     134                                                00010000D    123
     128       0    -151      12       0                               0D    124
     128     146                                                00010000D    125
     128       0    -151       3       0                               0D    126
     128     149                                                00010000D    127
     128       0    -151       3       0                               0D    128
     128     152                                                00010000D    129
     128       0    -151       3       0                               0D    130
     128     155                                                00010000D    131
     128       0    -151       5       0                               0D    132
     128     160                                                00010000D    133
     128       0    -151       4       0                               0D    134
     128     164                                                00010000D    135
     128       0    -151       5       0                               0D    136
     128     169                                                00010000D    137
     128       0    -151       3       0                               0D    138
     128     172                                                00010000D    139
     128       0    -151       3       0                               0D    140
     128     175                                                00010000D    141
     128       0    -151       3       0                               0D    142
     128     178                                                00010000D    143
     128       0    -151       3       0                               0D    144
     502     181                                                00010000D    145
     502                       6       1                               0D    146
     504     187                                                00010001D    147
     504                       8       1                               0D    148
     406     195                                                00000000D    149
     406                       1      15                               0D    150
     314     196                                                00000200D    151
     314                       2       0                               0D    152
186,3,1,0,0,1,149;                                                     1P      1
514,12,5,1,7,1,9,1,11,1,13,1,15,1,17,1,19,1,21,1,23,1,25,1,27,1;       3P      2
510,121,1,1,29;                                                        5P      3
510,123,1,1,31;                                                        7P      4
510,125,1,1,33;                                                        9P      5
510,127,1,1,35;                                                       11P      6
510,129,1,1,37;                                                       13P      7
510,131,1,1,39;                                                       15P      8
510,133,1,1,41;                                                       17P      9
510,135,1,1,43;                                                       19P     10
510,137,1,1,45;                                                       21P     11
510,139,1,1,47;                                                       23P     12
510,141,3,1,49,51,53;                                                 25P     13
510,143,3,1,55,57,59;                                                 27P     14
508,4,0,147,1,0,0,0,147,2,1,0,0,147,3,1,0,0,147,2,0,0;                29P     15
508,4,0,147,4,0,0,0,147,5,1,0,0,147,6,1,0,0,147,5,0,0;                31P     16
508,4,0,147,7,0,0,0,147,8,1,0,0,147,9,0,0,0,147,10,0,0;               33P     17
508,4,0,147,11,0,0,0,147,10,1,0,0,147,12,0,0,0,147,13,0,0;            35P     18
508,4,0,147,14,0,0,0,147,13,1,0,0,147,15,0,0,0,147,16,0,0;            37P     19
508,4,0,147,17,0,0,0,147,16,1,0,0,147,18,0,0,0,147,19,0,0;            39P     20
508,4,0,147,20,0,0,0,147,19,1,0,0,147,21,0,0,0,147,22,0,0;            41P     21
508,4,0,147,23,1,0,0,147,22,1,0,0,147,24,0,0,0,147,25,0,0;            43P     22
508,4,0,147,26,1,0,0,147,25,1,0,0,147,27,0,0,0,147,28,0,0;            45P     23
508,4,0,147,29,1,0,0,147,28,1,0,0,147,30,0,0,0,147,8,0,0;             47P     24
508,8,0,147,30,1,0,0,147,27,1,0,0,147,24,1,0,0,147,21,1,0,0,147,      49P     25
18,1,0,0,147,15,1,0,0,147,12,1,0,0,147,9,1,0;                         49P     26
508,1,0,147,4,1,0;                                                    51P     27
508,1,0,147,1,1,0;                                                    53P     28
508,8,0,147,29,0,0,0,147,7,1,0,0,147,11,1,0,0,147,14,1,0,0,147,       55P     29
17,1,0,0,147,20,1,0,0,147,23,0,0,0,147,26,0,0;                        55P     30
508,1,0,147,6,0,0;                                                    57P     31
508,1,0,147,3,0,0;                                                    59P     32
126,8,2,0,1,0,0,-3.14159265358979,-3.14159265358979,                  61P     33
-3.14159265358979,-1.5707963267949,-1.5707963267949,0.,0.,            61P     34
1.5707963267949,1.5707963267949,3.14159265358979,                     61P     35
3.14159265358979,3.14159265358979,1.,0.707106781186548,1.,            61P     36
0.707106781186548,1.,0.707106781186548,1.,0.707106781186548,1.,       61P     37
6.31,-2.7,6.,6.31,-1.45,6.,7.56,-1.45,6.,8.81,-1.45,6.,8.81,          61P     38
-2.7,6.,8.81,-3.95,6.,7.56,-3.95,6.,6.31,-3.95,6.,6.31,-2.7,6.,       61P     39
-3.14159265358979,3.14159265358979,0.,0.,0.;                          61P     40
126,1,1,0,0,1,0,-4.8,-4.8,0.,0.,1.,1.,6.31,-2.7,6.,6.31,-2.7,0.,      63P     41
-4.8,0.,0.,0.,0.;                                                     63P     42
126,8,2,0,1,0,0,-3.14159265358979,-3.14159265358979,                  65P     43
-3.14159265358979,-1.5707963267949,-1.5707963267949,0.,0.,            65P     44
1.5707963267949,1.5707963267949,3.14159265358979,                     65P     45
3.14159265358979,3.14159265358979,1.,0.707106781186548,1.,            65P     46
0.707106781186548,1.,0.707106781186548,1.,0.707106781186548,1.,       65P     47
6.31,-2.7,0.,6.31,-1.45,0.,7.56,-1.45,0.,8.81,-1.45,0.,8.81,          65P     48
-2.7,0.,8.81,-3.95,0.,7.56,-3.95,0.,6.31,-3.95,0.,6.31,-2.7,0.,       65P     49
-3.14159265358979,3.14159265358979,0.,0.,0.;                          65P     50
126,8,2,0,1,0,0,-3.14159265358979,-3.14159265358979,                  67P     51
-3.14159265358979,-1.5707963267949,-1.5707963267949,0.,0.,            67P     52
1.5707963267949,1.5707963267949,3.14159265358979,                     67P     53
3.14159265358979,3.14159265358979,1.,0.707106781186548,1.,            67P     54
0.707106781186548,1.,0.707106781186548,1.,0.707106781186548,1.,       67P     55
-8.69,-2.7,6.,-8.69,-1.45,6.,-7.44,-1.45,6.,-6.19,-1.45,6.,           67P     56
-6.19,-2.7,6.,-6.19,-3.95,6.,-7.44,-3.95,6.,-8.69,-3.95,6.,           67P     57
-8.69,-2.7,6.,-3.14159265358979,3.14159265358979,0.,0.,0.;            67P     58
126,1,1,0,0,1,0,-4.8,-4.8,0.,0.,1.,1.,-8.69,-2.7,6.,-8.69,-2.7,       69P     59
0.,-4.8,0.,0.,0.,0.;                                                  69P     60
126,8,2,0,1,0,0,-3.14159265358979,-3.14159265358979,                  71P     61
-3.14159265358979,-1.5707963267949,-1.5707963267949,0.,0.,            71P     62
1.5707963267949,1.5707963267949,3.14159265358979,                     71P     63
3.14159265358979,3.14159265358979,1.,0.707106781186548,1.,            71P     64
0.707106781186548,1.,0.707106781186548,1.,0.707106781186548,1.,       71P     65
-8.69,-2.7,0.,-8.69,-1.45,0.,-7.44,-1.45,0.,-6.19,-1.45,0.,           71P     66
-6.19,-2.7,0.,-6.19,-3.95,0.,-7.44,-3.95,0.,-8.69,-3.95,0.,           71P     67
-8.69,-2.7,0.,-3.14159265358979,3.14159265358979,0.,0.,0.;            71P     68
126,1,1,0,0,1,0,0.,0.,1.988,1.988,1.,1.,-9.94,0.,0.,9.94,0.,0.,       73P     69
0.,1.988,0.,0.,0.;                                                    73P     70
126,1,1,0,0,1,0,0.,0.,0.6,0.6,1.,1.,-9.94,0.,0.,-9.94,0.,6.,0.,       75P     71
0.6,0.,0.,0.;                                                         75P     72
126,1,1,0,0,1,0,-1.988,-1.988,0.,0.,1.,1.,9.94,0.,6.,-9.94,0.,        77P     73
6.,-1.988,0.,0.,0.,0.;                                                77P     74
126,1,1,0,0,1,0,0.,0.,0.6,0.6,1.,1.,9.94,0.,0.,9.94,0.,6.,0.,         79P     75
0.6,0.,0.,0.;                                                         79P     76
126,1,1,0,0,1,0,0.,0.,0.517,0.517,1.,1.,9.94,0.,0.,9.94,-5.17,        81P     77
0.,0.,0.517,0.,0.,0.;                                                 81P     78
126,1,1,0,0,1,0,-0.517,-0.517,0.,0.,1.,1.,9.94,-5.17,6.,9.94,0.,      83P     79
6.,-0.517,0.,0.,0.,0.;                                                83P     80
126,1,1,0,0,1,0,0.,0.,0.6,0.6,1.,1.,9.94,-5.17,0.,9.94,-5.17,6.,      85P     81
0.,0.6,0.,0.,0.;                                                      85P     82
126,1,1,0,0,1,0,0.,0.,0.488,0.488,1.,1.,9.94,-5.17,0.,5.06,           87P     83
-5.17,0.,0.,0.488,0.,0.,0.;                                           87P     84
126,1,1,0,0,1,0,-0.488,-0.488,0.,0.,1.,1.,5.06,-5.17,6.,9.94,         89P     85
-5.17,6.,-0.488,0.,0.,0.,0.;                                          89P     86
126,1,1,0,0,1,0,0.,0.,0.6,0.6,1.,1.,5.06,-5.17,0.,5.06,-5.17,6.,      91P     87
0.,0.6,0.,0.,0.;                                                      91P     88
126,1,1,0,0,1,0,0.,0.,0.431999999999994,0.431999999999994,1.,1.,      93P     89
5.06,-5.17,0.,5.06,-0.850000000000058,0.,0.,0.431999999999994,        93P     90
0.,0.,0.;                                                             93P     91
126,1,1,0,0,1,0,-0.431999999999994,-0.431999999999994,0.,0.,1.,       95P     92
1.,5.06,-0.850000000000058,6.,5.06,-5.17,6.,-0.431999999999994,       95P     93
0.,0.,0.,0.;                                                          95P     94
126,1,1,0,0,1,0,0.,0.,0.6,0.6,1.,1.,5.06,-0.850000000000058,0.,       97P     95
5.06,-0.850000000000058,6.,0.,0.6,0.,0.,0.;                           97P     96
126,1,1,0,0,1,0,0.,0.,1.012,1.012,1.,1.,5.06,-0.850000000000058,      99P     97
0.,-5.06,-0.850000000000064,0.,0.,1.012,0.,0.,0.;                     99P     98
126,1,1,0,0,1,0,-1.012,-1.012,0.,0.,1.,1.,-5.06,                     101P     99
-0.850000000000064,6.,5.06,-0.850000000000058,6.,-1.012,0.,0.,       101P    100
0.,0.;                                                               101P    101
126,1,1,0,0,1,0,0.,0.,0.6,0.6,1.,1.,-5.06,-0.850000000000064,0.,     103P    102
-5.06,-0.850000000000064,6.,0.,0.6,0.,0.,0.;                         103P    103
126,1,1,0,0,1,0,0.,0.,0.431999999999994,0.431999999999994,1.,1.,     105P    104
-5.06,-5.17,0.,-5.06,-0.850000000000064,0.,0.,0.431999999999994,     105P    105
0.,0.,0.;                                                            105P    106
126,1,1,0,0,1,0,0.,0.,0.431999999999994,0.431999999999994,1.,1.,     107P    107
-5.06,-5.17,6.,-5.06,-0.850000000000064,6.,0.,0.431999999999994,     107P    108
0.,0.,0.;                                                            107P    109
126,1,1,0,0,1,0,0.,0.,0.6,0.6,1.,1.,-5.06,-5.17,0.,-5.06,-5.17,      109P    110
6.,0.,0.6,0.,0.,0.;                                                  109P    111
126,1,1,0,0,1,0,0.,0.,0.488,0.488,1.,1.,-9.94,-5.17,0.,-5.06,        111P    112
-5.17,0.,0.,0.488,0.,0.,0.;                                          111P    113
126,1,1,0,0,1,0,0.,0.,0.488,0.488,1.,1.,-9.94,-5.17,6.,-5.06,        113P    114
-5.17,6.,0.,0.488,0.,0.,0.;                                          113P    115
126,1,1,0,0,1,0,0.,0.,0.6,0.6,1.,1.,-9.94,-5.17,0.,-9.94,-5.17,      115P    116
6.,0.,0.6,0.,0.,0.;                                                  115P    117
126,1,1,0,0,1,0,0.,0.,0.517,0.517,1.,1.,-9.94,0.,0.,-9.94,-5.17,     117P    118
0.,0.,0.517,0.,0.,0.;                                                117P    119
126,1,1,0,0,1,0,0.,0.,0.517,0.517,1.,1.,-9.94,0.,6.,-9.94,-5.17,     119P    120
6.,0.,0.517,0.,0.,0.;                                                119P    121
128,1,8,1,2,0,1,0,0,1,0.,0.,4.8,4.8,-3.14159265358979,               121P    122
-3.14159265358979,-3.14159265358979,-1.5707963267949,                121P    123
-1.5707963267949,0.,0.,1.5707963267949,1.5707963267949,              121P    124
3.14159265358979,3.14159265358979,3.14159265358979,1.,1.,            121P    125
0.707106781186548,0.707106781186548,1.,1.,0.707106781186548,         121P    126
0.707106781186548,1.,1.,0.707106781186548,0.707106781186548,1.,      121P    127
1.,0.707106781186548,0.707106781186548,1.,1.,6.31,-2.7,0.,6.31,      121P    128
-2.7,6.,6.31,-3.95,0.,6.31,-3.95,6.,7.56,-3.95,0.,7.56,-3.95,6.,     121P    129
8.81,-3.95,0.,8.81,-3.95,6.,8.81,-2.7,0.,8.81,-2.7,6.,8.81,          121P    130
-1.45,0.,8.81,-1.45,6.,7.56,-1.45,0.,7.56,-1.45,6.,6.31,-1.45,       121P    131
0.,6.31,-1.45,6.,6.31,-2.7,0.,6.31,-2.7,6.,0.,4.8,                   121P    132
-3.14159265358979,3.14159265358979;                                  121P    133
128,1,8,1,2,0,1,0,0,1,0.,0.,4.8,4.8,-3.14159265358979,               123P    134
-3.14159265358979,-3.14159265358979,-1.5707963267949,                123P    135
-1.5707963267949,0.,0.,1.5707963267949,1.5707963267949,              123P    136
3.14159265358979,3.14159265358979,3.14159265358979,1.,1.,            123P    137
0.707106781186548,0.707106781186548,1.,1.,0.707106781186548,         123P    138
0.707106781186548,1.,1.,0.707106781186548,0.707106781186548,1.,      123P    139
1.,0.707106781186548,0.707106781186548,1.,1.,-8.69,-2.7,0.,          123P    140
-8.69,-2.7,6.,-8.69,-3.95,0.,-8.69,-3.95,6.,-7.44,-3.95,0.,          123P    141
-7.44,-3.95,6.,-6.19,-3.95,0.,-6.19,-3.95,6.,-6.19,-2.7,0.,          123P    142
-6.19,-2.7,6.,-6.19,-1.45,0.,-6.19,-1.45,6.,-7.44,-1.45,0.,          123P    143
-7.44,-1.45,6.,-8.69,-1.45,0.,-8.69,-1.45,6.,-8.69,-2.7,0.,          123P    144
-8.69,-2.7,6.,0.,4.8,-3.14159265358979,3.14159265358979;             123P    145
128,1,1,1,1,0,0,1,0,0,-0.001,-0.001,1.989,1.989,-0.001,-0.001,       125P    146
0.601,0.601,1.,1.,1.,1.,9.95,0.,-0.01,-9.95,0.,-0.01,9.95,0.,        125P    147
6.01,-9.95,0.,6.01,-0.001,1.989,-0.001,0.601;                        125P    148
128,1,1,1,1,0,0,1,0,0,-0.001,-0.001,0.518,0.518,-0.001,-0.001,       127P    149
0.601,0.601,1.,1.,1.,1.,9.94,-5.18,-0.01,9.94,0.01,-0.01,9.94,       127P    150
-5.18,6.01,9.94,0.01,6.01,-0.001,0.518,-0.001,0.601;                 127P    151
128,1,1,1,1,0,0,1,0,0,-0.001,-0.001,0.489,0.489,-0.001,-0.001,       129P    152
0.601,0.601,1.,1.,1.,1.,5.05,-5.17,-0.01,9.95,-5.17,-0.01,5.05,      129P    153
-5.17,6.01,9.95,-5.17,6.01,-0.001,0.489,-0.001,0.601;                129P    154
128,1,1,1,1,0,0,1,0,0,-0.00100000000000003,-0.00100000000000003,     131P    155
0.432999999999995,0.432999999999995,-0.001,-0.001,0.601,0.601,       131P    156
1.,1.,1.,1.,5.06,-0.840000000000058,-0.01,5.06,-5.18,-0.01,5.06,     131P    157
-0.840000000000058,6.01,5.06,-5.18,6.01,-0.00100000000000003,        131P    158
0.432999999999995,-0.001,0.601;                                      131P    159
128,1,1,1,1,0,0,1,0,0,-0.001,-0.001,1.013,1.013,-0.001,-0.001,       133P    160
0.601,0.601,1.,1.,1.,1.,-5.07,-0.850000000000064,-0.01,5.07,         133P    161
-0.850000000000058,-0.01,-5.07,-0.850000000000064,6.01,5.07,         133P    162
-0.850000000000058,6.01,-0.001,1.013,-0.001,0.601;                   133P    163
128,1,1,1,1,0,0,1,0,0,-0.001,-0.001,0.432999999999994,               135P    164
0.432999999999994,-0.001,-0.001,0.601,0.601,1.,1.,1.,1.,-5.06,       135P    165
-5.18,-0.01,-5.06,-0.840000000000064,-0.01,-5.06,-5.18,6.01,         135P    166
-5.06,-0.840000000000064,6.01,-0.001,0.432999999999994,-0.001,       135P    167
0.601;                                                               135P    168
128,1,1,1,1,0,0,1,0,0,-0.001,-0.001,0.489,0.489,-0.001,-0.001,       137P    169
0.601,0.601,1.,1.,1.,1.,-9.95,-5.17,-0.01,-5.05,-5.17,-0.01,         137P    170
-9.95,-5.17,6.01,-5.05,-5.17,6.01,-0.001,0.489,-0.001,0.601;         137P    171
128,1,1,1,1,0,0,1,0,0,-0.001,-0.001,0.518,0.518,-0.001,-0.001,       139P    172
0.601,0.601,1.,1.,1.,1.,-9.94,0.01,-0.01,-9.94,-5.18,-0.01,          139P    173
-9.94,0.01,6.01,-9.94,-5.18,6.01,-0.001,0.518,-0.001,0.601;          139P    174
128,1,1,1,1,0,0,1,0,0,-0.995,-0.995,0.995,0.995,-0.2595,-0.2595,     141P    175
0.2595,0.2595,1.,1.,1.,1.,-9.95,-5.18,6.,9.95,-5.18,6.,-9.95,        141P    176
0.01,6.,9.95,0.01,6.,-0.995,0.995,-0.2595,0.2595;                    141P    177
128,1,1,1,1,0,0,1,0,0,-0.995,-0.995,0.995,0.995,-0.2595,-0.2595,     143P    178
0.2595,0.2595,1.,1.,1.,1.,9.95,-5.18,0.,-9.95,-5.18,0.,9.95,         143P    179
0.01,0.,-9.95,0.01,0.,-0.995,0.995,-0.2595,0.2595;                   143P    180
502,20,6.31,-2.7,6.,6.31,-2.7,0.,-8.69,-2.7,6.,-8.69,-2.7,0.,        145P    181
-9.94,0.,0.,9.94,0.,0.,-9.94,0.,6.,9.94,0.,6.,9.94,-5.17,0.,         145P    182
9.94,-5.17,6.,5.06,-5.17,0.,5.06,-5.17,6.,5.06,                      145P    183
-0.850000000000058,0.,5.06,-0.850000000000058,6.,-5.06,              145P    184
-0.850000000000064,0.,-5.06,-0.850000000000064,6.,-5.06,-5.17,       145P    185
0.,-5.06,-5.17,6.,-9.94,-5.17,0.,-9.94,-5.17,6.;                     145P    186
504,30,61,145,1,145,1,63,145,1,145,2,65,145,2,145,2,67,145,3,        147P    187
145,3,69,145,3,145,4,71,145,4,145,4,73,145,5,145,6,75,145,5,145,     147P    188
7,77,145,8,145,7,79,145,6,145,8,81,145,6,145,9,83,145,10,145,8,      147P    189
85,145,9,145,10,87,145,9,145,11,89,145,12,145,10,91,145,11,145,      147P    190
12,93,145,11,145,13,95,145,14,145,12,97,145,13,145,14,99,145,13,     147P    191
145,15,101,145,16,145,14,103,145,15,145,16,105,145,17,145,15,        147P    192
107,145,18,145,16,109,145,17,145,18,111,145,19,145,17,113,145,       147P    193
20,145,18,115,145,19,145,20,117,145,5,145,19,119,145,7,145,20;       147P    194
406,1,5HBody1;                                                       149P    195
314,62.7450980392157,62.7450980392157,62.7450980392157,13HSteel      151P    196
- Satin;                                                             151P    197
S      1G      3D    152P    197                                        T      1
